<svg xmlns="http://www.w3.org/2000/svg" xmlns:xlink="http://www.w3.org/1999/xlink"><symbol id="icon-logo" viewBox="0 0 158 36"><mask id="a" style="mask-type:alpha" maskUnits="userSpaceOnUse" x="0" y="0" width="158" height="36"><path d="M0 .946h158v34.362H0V.946z"/></mask><g mask="url(#a)"><path fill-rule="evenodd" clip-rule="evenodd" d="M4.767 24.107L28.005 1.929v7.45c0 .43-.179.844-.498 1.149L9.023 28.168l-4.256-4.061zm7.11 6.785L28.005 15.5v7.45c0 .43-.179.844-.498 1.149l-7.119 6.793 1.401 1.338 4.256 4.06h-8.511l-1.401-1.336-4.256-4.062zm146.759-6.822l4.131 2.802a10.652 10.652 0 01-8.366 4.017c-5.856 0-10.602-4.664-10.602-10.416 0-5.753 4.746-10.417 10.602-10.417 3.4 0 6.426 1.573 8.366 4.018l-4.131 2.801a5.515 5.515 0 00-4.235-1.989c-3.055 0-5.541 2.506-5.541 5.587 0 3.08 2.486 5.586 5.541 5.586a5.515 5.515 0 004.235-1.989zM46.629 18.494h8.548l-1.633 4.583H46.63v7.812H41.64V10.057h16.543L56.55 14.64h-9.92v3.854zm70.586-8.438h16.216v4.584h-5.613v16.249h-4.99v-16.25h-5.613v-4.582zm18.371 20.833h5.106V10.057h-5.106v20.832zm-29.946-7.83l2.526-7.556 2.526 7.555h-5.052zm-.655-13.003L97.564 30.89h5.457l1.082-3.248h8.126l1.082 3.248h5.458l-7.422-20.832h-6.362zm-14.406 0h4.99V30.89h-3.743l-8.42-11.31v11.31h-4.989V10.057h3.742l8.42 11.308V10.057zM63.293 23.059l2.526-7.555 2.526 7.555h-5.052zm-.654-13.002L55.217 30.89h5.457l1.083-3.248h8.125l1.083 3.248h5.457L69 10.057H62.64z"/></g></symbol><symbol id="icon-popup-video" viewBox="0 0 70 70"><path d="M52.673 34.5l-26.51 15.155v-30.31L52.673 34.5z"/><path fill-rule="evenodd" clip-rule="evenodd" d="M35 68c18.225 0 33-14.775 33-33S53.225 2 35 2 2 16.775 2 35s14.775 33 33 33zm0 2c19.33 0 35-15.67 35-35S54.33 0 35 0 0 15.67 0 35s15.67 35 35 35z"/></symbol><symbol id="icon-star" viewBox="0 0 201 199"><path d="M100.5 0l23.23 43.977 47.834-14.834L156.581 76.5 201 99.5l-44.419 22.999 14.983 47.358-47.834-14.834L100.5 199l-23.23-43.977-47.834 14.834 14.983-47.358L0 99.5l44.419-22.999-14.983-47.358L77.27 43.977 100.5 0z"/></symbol> <view id="icon-logo-view-blue" viewBox="0 0 158 36"/><view id="icon-logo-view-dark" viewBox="0 46 158 36"/><view id="icon-logo-view-white" viewBox="0 92 158 36"/><view id="icon-logo-view-green" viewBox="0 138 158 36"/><view id="icon-popup-video-view-blue" viewBox="0 184 70 70"/><view id="icon-popup-video-view-dark" viewBox="0 264 70 70"/><view id="icon-popup-video-view-white" viewBox="0 344 70 70"/><view id="icon-popup-video-view-green" viewBox="0 424 70 70"/><view id="icon-star-view-blue" viewBox="0 504 201 199"/><view id="icon-star-view-dark" viewBox="0 713 201 199"/><view id="icon-star-view-white" viewBox="0 922 201 199"/><view id="icon-star-view-green" viewBox="0 1131 201 199"/> <use xlink:href="#icon-logo" x="0" y="0" width="158" height="36" style="fill:#0093A1"/><use xlink:href="#icon-logo" x="0" y="46" width="158" height="36" style="fill:#262C27"/><use xlink:href="#icon-logo" x="0" y="92" width="158" height="36" style="fill:#ffffff"/><use xlink:href="#icon-logo" x="0" y="138" width="158" height="36" style="fill:#B9C400"/><use xlink:href="#icon-popup-video" x="0" y="184" width="70" height="70" style="fill:#0093A1"/><use xlink:href="#icon-popup-video" x="0" y="264" width="70" height="70" style="fill:#262C27"/><use xlink:href="#icon-popup-video" x="0" y="344" width="70" height="70" style="fill:#ffffff"/><use xlink:href="#icon-popup-video" x="0" y="424" width="70" height="70" style="fill:#B9C400"/><use xlink:href="#icon-star" x="0" y="504" width="201" height="199" style="fill:#0093A1"/><use xlink:href="#icon-star" x="0" y="713" width="201" height="199" style="fill:#262C27"/><use xlink:href="#icon-star" x="0" y="922" width="201" height="199" style="fill:#ffffff"/><use xlink:href="#icon-star" x="0" y="1131" width="201" height="199" style="fill:#B9C400"/></svg>